<?xml version="1.0" encoding="iso-8859-1"?>
<!-- Uploaded to: SVG Repo, www.svgrepo.com, Generator: SVG Repo Mixer Tools -->
<svg fill="#000000" height="800px" width="800px" version="1.1" id="Layer_1" xmlns="http://www.w3.org/2000/svg" xmlns:xlink="http://www.w3.org/1999/xlink" 
	 viewBox="0 0 496 496" xml:space="preserve">
<g>
	<g>
		<path d="M480.4,405.088L391.312,316l14.344-14.344l-11.312-11.312L380,304.688l-19.952-19.952
			C375.288,257.224,384,225.616,384,192C384,86.136,297.864,0,192,0S0,86.136,0,192s86.136,192,192,192
			c33.616,0,65.224-8.712,92.736-23.952L304.688,380l-14.344,14.344l11.312,11.312L316,391.312l89.088,89.088
			c10.064,10.064,23.432,15.6,37.656,15.6C472.112,496,496,472.112,496,442.744C496,428.512,490.464,415.152,480.4,405.088z
			 M55.312,302.696C30.752,272.44,16,233.92,16,192C16,94.952,94.952,16,192,16s176,78.952,176,176
			c0,41.92-14.752,80.44-39.304,110.704c-3.368-4.312-7.192-8.216-11.408-11.632C339.68,262.824,352,228.104,352,192
			c0-85.584-67.592-155.48-152.168-159.6c-1.584-0.136-3.176-0.184-4.776-0.24C194.032,32.136,193.032,32,192,32
			c-0.416,0-0.816,0.056-1.232,0.064c-2.56,0.024-5.128,0.16-7.704,0.392C99,37.136,32,106.792,32,192
			c0,36.104,12.32,70.824,34.72,99.064C62.496,294.488,58.68,298.384,55.312,302.696z M192,144c-42.552,0-60.72-7.296-60.848-7.352
			L120,131.872v30.696c-6.472-13.448-9.184-28.576-7.48-43.808c3.912-35.072,31.96-64.408,66.696-69.768
			c1.808-0.28,3.608-0.464,5.408-0.616c1.752-0.088,3.488-0.24,5.256-0.272c2.048-0.048,4.08-0.016,6.104,0.096
			c0.896,0.024,1.776,0.096,2.672,0.136c27.2,2.344,51.76,18.336,64.536,43.304l2.232,4.36h4.888c5.344,0,9.688,4.344,9.688,9.688
			V136c0,16.512-5.824,32.448-16.008,45.136l-0.04-49.08l-11.056,4.568C252.72,136.704,234.552,144,192,144z M248,154.672V192
			c0,30.872-25.128,56-56,56s-56-25.128-56-56v-37.328c10.456,2.44,28.616,5.328,56,5.328C219.384,160,237.544,157.112,248,154.672z
			 M96.616,116.976c-3.032,27.088,5.544,53.888,23.384,74.208V192c0,21.256,9.312,40.328,24,53.512v20.12L95.816,276.76
			c-5.432,1.248-10.624,3.176-15.544,5.6C59.48,256.72,48,225.016,48,192c0-51.376,27.128-96.424,67.728-121.92
			C105.44,83.552,98.544,99.656,96.616,116.976z M150.656,280.52l28.448,17.064l-17.856,17.856l-21.584-32.384L150.656,280.52z
			 M160,267.472V256.4c9.656,4.816,20.496,7.6,32,7.6c11.504,0,22.344-2.776,32-7.6v11.064l-32,19.2L160,267.472z M233.344,280.52
			l11,2.536L222.76,315.44l-17.856-17.856L233.344,280.52z M240,265.632v-20.12c11.696-10.496,19.928-24.72,22.808-40.824
			C283.592,188.096,296,162.664,296,136v-30.312c0-12.44-8.888-22.84-20.648-25.192c-2.056-3.608-4.368-7-6.832-10.256
			C308.984,95.76,336,140.736,336,192c0,33.016-11.48,64.72-32.272,90.36c-4.92-2.424-10.112-4.344-15.544-5.6L240,265.632z
			 M192,368c-49.304,0-93.904-20.4-125.888-53.176c7.904-11.288,19.76-19.352,33.296-22.472l23.584-5.44l35.768,53.648L192,307.312
			l33.24,33.24l35.768-53.648l23.584,5.44c13.528,3.12,25.392,11.192,33.296,22.472C285.904,347.6,241.304,368,192,368z
			 M298.792,351.472c20.792-13.968,38.72-31.896,52.688-52.688l17.208,17.208L316,368.688L298.792,351.472z M327.312,380
			L380,327.312L396.688,344L344,396.688L327.312,380z M442.744,480c-9.952,0-19.304-3.872-26.344-10.912L355.312,408L408,355.312
			l61.088,61.088c7.04,7.04,10.912,16.392,10.912,26.344C480,463.288,463.288,480,442.744,480z"/>
	</g>
</g>
</svg>